<?xml version="1.0" encoding="utf-8"?>
<?xml-stylesheet type="text/xsl" href="rss1.xsl"?>
<rss version="2.0" xmlns:atom="http://www.w3.org/2005/Atom" xmlns:content="http://purl.org/rss/1.0/modules/content/" xmlns:dc="http://purl.org/dc/elements/1.1/" xmlns:media="http://search.yahoo.com/mrss/">
<channel>
 <title>Getty</title>
 <link>http://www.gettyimg.com/</link>
 <atom:link href="http://www.gettyimg.com/" rel="self" type="application/rss+xml" />

 
                <item>
                <title><![CDATA[【Singles (lossy)】MP3 - Rihanna - Love Without Tragedy / Mother Mary (Separated) + Instrumental &amp; Acapella]]></title>
                <link><![CDATA[https://sharemania.us/threads/rihanna-love-without-tragedy-mother-mary-separated-instrumental-acapella.224564/]]></link>
                <description><![CDATA[<article>
<blockquote class="messageText SelectQuoteContainer ugc baseHtml">
<a href="https://drive.google.com/file/d/1FX1qa3x9UqOPk3g-_H5rF1F9x7SJCnBW/view?usp=drivesdk" target="_blank" class="externalLink" rel="nofollow">https://drive.google.com/file/d/1FX1qa3x9UqOPk3g-_H5rF1F9x7SJCnBW/view?usp=drivesdk<img src="https://is2-ssl.mzstatic.com/image/thumb/Music116/v4/24/4f/99/244f99bf-4417-421e-0ee6-934b02ff4b1b/16UMGIM59235.rgb.jpg/5000x5000bb.jpg" class="bbCodeImage LbImage" alt="[​IMG]" data-url="https://is2-ssl.mzstatic.com/image/thumb/Music116/v4/24/4f/99/244f99bf-4417-421e-0ee6-934b02ff4b1b/16UMGIM59235.rgb.jpg/5000x5000bb.jpg"> </a>
<div class="messageTextEndMarker">&nbsp;</div>
</blockquote>
</article>]]></description>
                <author><![CDATA[Mohammed]]></author>
                </item>

                
                <item>
                <title><![CDATA[【Apple Music】WEB-RiP - Rita Ora ft. Tinie Tempah  - R.I.P. (1080p)]]></title>
                <link><![CDATA[https://sharemania.us/threads/rita-ora-ft-tinie-tempah-r-i-p-1080p.224565/]]></link>
                <description><![CDATA[<article>
<blockquote class="messageText SelectQuoteContainer ugc baseHtml">
<img src="https://i.imgur.com/j9kKE1L.jpg" class="bbCodeImage LbImage" alt="[​IMG]" data-url="https://i.imgur.com/j9kKE1L.jpg" style=""><br>
<br>
<div class="bbCodeBlock bbCodeCode">
<div class="type">Code:</div>
<pre>General
Complete name                  : C:\Users\asus\Desktop\Rita Ora ft. Tinie Tempah  - R.I.P..mp4
Format                         : MPEG-4
Format profile                 : Base Media
Codec ID                       : isom (isom/iso2/avc1/mp41)
File size                      : 192 MiB
Duration                       : 3 min 50 s
Overall bit rate               : 6 980 kb/s
Frame rate                     : 23.976 FPS
Movie name                     : R.I.P.
Performer                      : Rita Ora
Genre                          : Pop
ContentType                    : Music Video
Recorded date                  : 2012-04-05 07:00:00 UTC
Writing application            : Lavf57.29.101
Copyright                      : ℗ (C) 2012 Roc Nation LLC, under exclusive license to Columbia Records, a Division of Sony Music Entertainment

Video
ID                             : 1
Format                         : AVC
Format/Info                    : Advanced Video Codec
Format profile                 : High@L4
Format settings                : CABAC / 5 Ref Frames
Format settings, CABAC         : Yes
Format settings, Reference fra : 5 frames
Codec ID                       : avc1
Codec ID/Info                  : Advanced Video Coding
Duration                       : 3 min 50 s
Bit rate                       : 6 721 kb/s
Width                          : 1 920 pixels
Height                         : 808 pixels
Display aspect ratio           : 2.40:1
Frame rate mode                : Constant
Frame rate                     : 23.976 (23976/1000) FPS
Color space                    : YUV
Chroma subsampling             : 4:2:0
Bit depth                      : 8 bits
Scan type                      : Progressive
Bits/(Pixel*Frame)             : 0.181
Stream size                    : 185 MiB (96%)
Color range                    : Limited
Color primaries                : BT.709
Transfer characteristics       : BT.709
Matrix coefficients            : BT.709
Codec configuration box        : avcC

Audio
ID                             : 2
Format                         : AAC LC
Format/Info                    : Advanced Audio Codec Low Complexity
Codec ID                       : mp4a-40-2
Duration                       : 3 min 50 s
Bit rate mode                  : Constant
Bit rate                       : 256 kb/s
Channel(s)                     : 2 channels
Channel layout                 : L R
Sampling rate                  : 48.0 kHz
Frame rate                     : 46.875 FPS (1024 SPF)
Compression mode               : Lossy
Stream size                    : 7.04 MiB (4%)
Default                        : Yes
Alternate group                : 1

</pre>
</div>
<div class="bbCodeBlock bbCodeVfcHH HiddenContent">
<div class="attribution type">Hidden Content:</div>
<blockquote>You must either reply or click 'Like' to see the hidden information contained here.</blockquote>
</div>
<div class="messageTextEndMarker">&nbsp;</div>
</blockquote>
</article>]]></description>
                <author><![CDATA[vitalya3]]></author>
                </item>

                </channel></rss>